<svg xmlns="http://www.w3.org/2000/svg" viewBox="0 0 220 220" role="img" aria-labelledby="title desc">
  <title id="title">Entrenamiento personal</title>
  <desc id="desc">Entrenadora personal con kettlebell y checklist.</desc>
  <rect width="220" height="220" rx="54" fill="#eef9fb"/>
  <ellipse cx="110" cy="174" rx="58" ry="8" fill="#d8ece9"/>
  <path d="M80 143c6-22 18-35 30-35s24 13 30 35" fill="#fff" stroke="#43b65c" stroke-width="7" stroke-linecap="round"/>
  <path d="M86 88c0-20 12-35 27-35s27 15 27 35" fill="none" stroke="#43b65c" stroke-width="7" stroke-linecap="round"/>
  <path d="M88 82c9-2 21-7 28-16 7 8 16 13 27 15" fill="none" stroke="#43b65c" stroke-width="7" stroke-linecap="round" stroke-linejoin="round"/>
  <path d="M82 90c-7 0-12 7-10 15 2 9 8 13 14 12M142 90c7 0 12 7 10 15-2 9-8 13-14 12" fill="none" stroke="#43b65c" stroke-width="7" stroke-linecap="round"/>
  <path d="M89 143c9 12 34 12 43 0" fill="none" stroke="#43b65c" stroke-width="7" stroke-linecap="round"/>
  <path d="M75 144c10 20 60 20 70 0" fill="none" stroke="#43b65c" stroke-width="7" stroke-linecap="round"/>
  <path d="M107 114l10 12 10-12" fill="none" stroke="#5b9df0" stroke-width="6" stroke-linecap="round" stroke-linejoin="round"/>
  <circle cx="118" cy="128" r="5" fill="#5b9df0"/>
  <path d="M49 121h-7a18 18 0 0 0-18 18v19h46v-19a18 18 0 0 0-18-18h-3Z" fill="#fff" stroke="#43b65c" stroke-width="7" stroke-linejoin="round"/>
  <path d="M40 121v-11a13 13 0 0 1 26 0v11" fill="none" stroke="#43b65c" stroke-width="7" stroke-linecap="round"/>
  <path d="M158 79h36v63h-36z" fill="#fff" stroke="#5b9df0" stroke-width="7" stroke-linejoin="round"/>
  <path d="M168 74h16v10h-16z" fill="#fff" stroke="#5b9df0" stroke-width="6" stroke-linejoin="round"/>
  <path d="M166 99l5 5 10-12M166 121l5 5 10-12" fill="none" stroke="#5b9df0" stroke-width="6" stroke-linecap="round" stroke-linejoin="round"/>
  <path d="M185 101h4M185 123h4" stroke="#43b65c" stroke-width="5" stroke-linecap="round"/>
  <path d="M31 74h10M36 69v10M178 52h10M183 47v10" stroke="#5b9df0" stroke-width="5" stroke-linecap="round"/>
  <circle cx="190" cy="158" r="4" fill="#43b65c"/><circle cx="182" cy="164" r="3" fill="#43b65c"/>
</svg>
