<svg xmlns="http://www.w3.org/2000/svg" viewBox="0 0 220 220" role="img" aria-labelledby="title desc">
  <title id="title">Mediciones y monitoreo</title>
  <desc id="desc">Clipboard con métricas de salud, cinta métrica y check de progreso.</desc>
  <rect width="220" height="220" rx="54" fill="#eef9fb"/>
  <ellipse cx="110" cy="174" rx="58" ry="8" fill="#d8ece9"/>
  <path d="M75 52h70a8 8 0 0 1 8 8v102a8 8 0 0 1-8 8H75a8 8 0 0 1-8-8V60a8 8 0 0 1 8-8Z" fill="#fff" stroke="#43b65c" stroke-width="7" stroke-linejoin="round"/>
  <path d="M92 52v-8h36v8" fill="none" stroke="#43b65c" stroke-width="7" stroke-linecap="round" stroke-linejoin="round"/>
  <circle cx="110" cy="41" r="6" fill="#43b65c"/>
  <circle cx="92" cy="82" r="16" fill="none" stroke="#43b65c" stroke-width="7"/>
  <path d="M82 100c4-8 16-8 20 0" fill="none" stroke="#43b65c" stroke-width="6" stroke-linecap="round"/>
  <path d="M118 86h10l7-16 10 30 7-14h13" fill="none" stroke="#5b9df0" stroke-width="7" stroke-linecap="round" stroke-linejoin="round"/>
  <path d="M87 124h26M87 142h33" stroke="#43b65c" stroke-width="7" stroke-linecap="round"/>
  <path d="M118 153v-19M133 153v-33M148 153v-48" stroke="#5b9df0" stroke-width="8" stroke-linecap="round"/>
  <path d="M45 152c0-10 12-18 28-18s28 8 28 18v22H45v-22Z" fill="#fff" stroke="#43b65c" stroke-width="7"/>
  <path d="M58 151v15M72 151v15M86 151v15" stroke="#43b65c" stroke-width="5" stroke-linecap="round"/>
  <circle cx="163" cy="155" r="24" fill="#fff" stroke="#5b9df0" stroke-width="7"/>
  <path d="M152 154l8 8 16-18" fill="none" stroke="#5b9df0" stroke-width="7" stroke-linecap="round" stroke-linejoin="round"/>
  <path d="M35 92h10M40 87v10M183 100h10M188 95v10" stroke="#5b9df0" stroke-width="5" stroke-linecap="round"/>
  <circle cx="188" cy="126" r="4" fill="#43b65c"/><circle cx="177" cy="130" r="3" fill="#43b65c"/><circle cx="196" cy="136" r="3" fill="#43b65c"/>
</svg>
