<svg xmlns="http://www.w3.org/2000/svg" viewBox="0 0 800 800"><rect width="800" height="800" rx="64" fill="#f7fbf8"/><defs><style>.g{fill:none;stroke:#6a9f00;stroke-width:13;stroke-linecap:round;stroke-linejoin:round}.b{fill:#86c8ff;opacity:.75}.m{fill:none;stroke:#cfe0cf;stroke-width:3}</style></defs><path class="g" d="M165 120v555M635 120v555M220 650h360"/><circle class="g" cx="405" cy="180" r="45"/><path class="g" d="M405 225v130M325 252h160M260 252h-70M550 252h70"/><circle class="g" cx="232" cy="252" r="36"/><circle class="g" cx="568" cy="252" r="36"/><path class="g" d="M392 355l-120 110 2 142h82M440 355l92 132-20 120h75"/><path class="b" d="M335 360c57 0 91 36 98 84-61 13-113-14-136-62zM475 425c39 23 62 62 55 106-52-2-84-31-98-74z"/><path class="g" d="M274 607h86M512 607h85"/><path class="g" d="M245 665h310"/><path class="m" d="M220 610h350" stroke-dasharray="18 18"/></svg>